<?xml version="1.0" encoding="UTF-8" standalone="no"?>
<!-- Created with Inkscape (http://www.inkscape.org/) -->

<svg
   width="25"
   height="30"
   viewBox="0 0 6.6145835 7.9375002"
   version="1.1"
   id="svg5"
   inkscape:version="1.1.1 (3bf5ae0d25, 2021-09-20)"
   sodipodi:docname="marker.svg"
   xmlns:inkscape="http://www.inkscape.org/namespaces/inkscape"
   xmlns:sodipodi="http://sodipodi.sourceforge.net/DTD/sodipodi-0.dtd"
   xmlns="http://www.w3.org/2000/svg"
   xmlns:svg="http://www.w3.org/2000/svg">
  <sodipodi:namedview
     id="namedview7"
     pagecolor="#505050"
     bordercolor="#ffffff"
     borderopacity="1"
     inkscape:pageshadow="0"
     inkscape:pageopacity="0"
     inkscape:pagecheckerboard="1"
     inkscape:document-units="mm"
     showgrid="false"
     fit-margin-top="0"
     fit-margin-left="0"
     fit-margin-right="0"
     fit-margin-bottom="0"
     inkscape:zoom="16"
     inkscape:cx="19.71875"
     inkscape:cy="8.96875"
     inkscape:window-width="1920"
     inkscape:window-height="1017"
     inkscape:window-x="1272"
     inkscape:window-y="-8"
     inkscape:window-maximized="1"
     inkscape:current-layer="layer1"
     units="px" />
  <defs
     id="defs2" />
  <g
     inkscape:label="Layer 1"
     inkscape:groupmode="layer"
     id="layer1"
     transform="translate(-135.75139,-179.38419)">
    <ellipse
       style="fill:#000000;fill-opacity:0.421911;stroke-width:0.668299;stroke-linecap:round;stroke-linejoin:round"
       id="ellipse1929"
       cx="226.95493"
       cy="-95.488365"
       rx="0.52909541"
       ry="0.77393979"
       transform="matrix(0.21602925,0.97638689,-0.92193258,0.38735038,0,0)" />
    <path
       id="ellipse4464"
       style="fill:#000000;fill-opacity:0.421911;stroke-width:0.287035;stroke-linecap:round;stroke-linejoin:round"
       d="m 138.54854,183.86191 c -0.43959,0.17515 -0.77402,0.53154 -0.8274,0.32364 -0.14148,-0.12055 0.026,-0.19398 0.46552,-0.36913 0.43956,-0.17513 0.87691,-0.30694 0.97698,-0.29437 0.10005,0.0128 -0.17527,0.16474 -0.61485,0.33989 z"
       sodipodi:nodetypes="scscss" />
    <ellipse
       style="fill:#4a4a4a;fill-opacity:1;stroke-width:1.19088;stroke-linecap:round;stroke-linejoin:round"
       id="path3356"
       cx="139.12282"
       cy="182.29192"
       rx="0.27478644"
       ry="1.257002" />
    <path
       id="path1605"
       style="fill:#261e18;stroke-width:1.03557;stroke-linecap:round;stroke-linejoin:round"
       d="m 139.72501,180.12353 c 0,-0.65135 -0.16085,-0.71393 -0.62128,-0.71394 -0.46044,-1e-5 -0.53633,0.10203 -0.53633,0.75338 0,0.65136 0.0865,1.55016 0.54694,1.55015 0.46044,0 0.61067,-0.93825 0.61067,-1.58959 z"
       sodipodi:nodetypes="scscs" />
  </g>
</svg>
